<svg width="27" height="26" viewBox="0 0 27 26" fill="none" xmlns="http://www.w3.org/2000/svg">
<path fill-rule="evenodd" clip-rule="evenodd" d="M14.5706 5.27819L8.07058 6.90319C7.58832 7.02376 7.25 7.45707 7.25 7.95418V21.6667H15.9167V10.8333V8.66665V6.32918C15.9167 5.62439 15.2543 5.10725 14.5706 5.27819ZM18.0833 10.8333V21.6667H20.25V11.9167C20.25 11.3183 19.765 10.8333 19.1667 10.8333H18.0833ZM22.4167 23.8333H23.5C24.0983 23.8333 24.5833 23.3483 24.5833 22.75C24.5833 22.1517 24.0983 21.6667 23.5 21.6667H22.4167V11.9167C22.4167 10.1217 20.9616 8.66665 19.1667 8.66665H18.0833V6.32918C18.0833 4.21482 16.0963 2.66341 14.0451 3.17621L7.54509 4.80121C6.0983 5.16291 5.08333 6.46286 5.08333 7.95418V21.6667H4C3.40169 21.6667 2.91666 22.1517 2.91666 22.75C2.91666 23.3483 3.40169 23.8333 4 23.8333H5.08333H7.25H15.9167H18.0833H20.25H22.4167Z" fill="white"/>
<path fill-rule="evenodd" clip-rule="evenodd" d="M9.41666 18.4167C9.41666 17.8184 9.90169 17.3333 10.5 17.3333H12.6667C13.265 17.3333 13.75 17.8184 13.75 18.4167C13.75 19.015 13.265 19.5 12.6667 19.5H10.5C9.90169 19.5 9.41666 19.015 9.41666 18.4167Z" fill="white"/>
<path fill-rule="evenodd" clip-rule="evenodd" d="M9.41666 14.0833C9.41666 13.485 9.90169 13 10.5 13H12.6667C13.265 13 13.75 13.485 13.75 14.0833C13.75 14.6816 13.265 15.1667 12.6667 15.1667H10.5C9.90169 15.1667 9.41666 14.6816 9.41666 14.0833Z" fill="white"/>
<path fill-rule="evenodd" clip-rule="evenodd" d="M9.41666 9.74999C9.41666 9.15168 9.90169 8.66666 10.5 8.66666H12.6667C13.265 8.66666 13.75 9.15168 13.75 9.74999C13.75 10.3483 13.265 10.8333 12.6667 10.8333H10.5C9.90169 10.8333 9.41666 10.3483 9.41666 9.74999Z" fill="white"/>
</svg>
