<svg width="28" height="21" viewBox="0 0 28 21" fill="none" xmlns="http://www.w3.org/2000/svg">
<path opacity="0.3" fill-rule="evenodd" clip-rule="evenodd" d="M10.6644 15.5448C10.2972 15.7389 10.2771 15.8107 10.2444 17.05C10.2122 18.2727 10.1778 18.4261 9.86177 18.7592C9.64794 18.9847 9.22428 19.1872 8.96519 19.1879C8.54977 19.189 8.17479 19.4785 8.10467 19.8522C8.05341 20.1256 8.20541 20.4804 8.44285 20.6418C8.7927 20.8796 9.60369 20.7898 10.2737 20.4394C10.6637 20.2352 11.2263 19.685 11.4525 19.2862C11.7523 18.7576 11.8312 18.3098 11.8312 17.1375C11.8312 16.2045 11.8209 16.0852 11.7225 15.8819C11.6435 15.7188 11.5521 15.6274 11.389 15.5484C11.1128 15.4147 10.9124 15.4137 10.6644 15.5448ZM13.1303 15.5593C12.7274 15.7903 12.7288 15.7814 12.7289 18.1052C12.729 20.4024 12.7301 20.4101 13.093 20.6525C13.469 20.9037 14.0155 20.7565 14.2203 20.3489C14.3035 20.1834 14.3126 19.961 14.3127 18.1052C14.3128 16.2005 14.3054 16.0313 14.2149 15.8612C14.0959 15.6377 13.7714 15.4414 13.5208 15.4414C13.4192 15.4414 13.2434 15.4945 13.1303 15.5593ZM15.6487 15.5495C15.4903 15.6278 15.396 15.7232 15.3187 15.8829C15.2208 16.085 15.2104 16.206 15.2104 17.1375C15.2104 18.3098 15.2893 18.7576 15.5891 19.2862C15.8153 19.685 16.3779 20.2352 16.7679 20.4394C17.4379 20.7898 18.2489 20.8796 18.5987 20.6418C18.8362 20.4804 18.9882 20.1256 18.9369 19.8522C18.8668 19.4785 18.4918 19.189 18.0764 19.1879C17.8173 19.1872 17.3937 18.9847 17.1798 18.7592C16.8638 18.4261 16.8294 18.2727 16.7972 17.05C16.7643 15.8043 16.7446 15.7354 16.366 15.5422C16.1085 15.4108 15.925 15.4127 15.6487 15.5495Z" fill="#2C2B46"/>
<path fill-rule="evenodd" clip-rule="evenodd" d="M2.6006 0.257104C2.44595 0.294538 2.11596 0.425955 1.86727 0.549188C1.0783 0.940165 0.480984 1.64007 0.15458 2.55603L0.0322976 2.89922L0.0162467 7.2092C-0.00186337 12.0596 -0.00893845 11.952 0.380877 12.7462C0.79065 13.5811 1.61722 14.2608 2.53856 14.5204C2.71058 14.5689 3.15715 14.6143 3.63414 14.6317L4.43933 14.6612L4.44012 13.5057C4.44102 12.1896 4.48764 11.8969 4.79677 11.2679C5.08168 10.6881 5.68792 10.0895 6.28729 9.79609C7.08588 9.40517 6.7656 9.42175 13.5208 9.42175C20.2759 9.42175 19.9556 9.40517 20.7542 9.79609C21.3536 10.0895 21.9598 10.6881 22.2447 11.2679C22.5539 11.8969 22.6005 12.1896 22.6014 13.5057L22.6022 14.6612L23.4074 14.6317C23.8844 14.6143 24.3309 14.5689 24.503 14.5204C25.4243 14.2608 26.2509 13.5811 26.6606 12.7462C27.0504 11.952 27.0434 12.0596 27.0253 7.2092L27.0092 2.89922L26.8869 2.55603C26.551 1.61325 25.9562 0.928549 25.1278 0.531078C24.8567 0.400981 24.509 0.268825 24.3552 0.237304C23.9157 0.147387 2.97526 0.166448 2.6006 0.257104ZM19.2557 3.32489C19.6328 3.60678 19.7379 4.01349 19.528 4.37759C19.3251 4.72966 19.1613 4.77981 18.2727 4.76229C17.6032 4.74909 17.4895 4.73393 17.367 4.64159C16.992 4.35906 16.9309 3.85525 17.2262 3.4799C17.4237 3.22884 17.5934 3.18835 18.3878 3.20287C19.0228 3.21443 19.1277 3.22916 19.2557 3.32489ZM23.0235 3.28212C23.1246 3.33286 23.2633 3.45757 23.3318 3.55921C23.5016 3.81122 23.478 4.28113 23.2852 4.48747C23.0462 4.74333 22.9249 4.77358 22.1374 4.77358C21.4622 4.77358 21.3891 4.76397 21.224 4.65373C20.7176 4.31545 20.7622 3.5647 21.3046 3.29622C21.6018 3.14912 22.7402 3.13977 23.0235 3.28212ZM7.45473 11.0609C6.93867 11.1623 6.38999 11.5986 6.1714 12.0814C6.05841 12.331 6.04848 12.4325 6.0328 13.4986L6.0159 14.647H13.5208H21.0256L21.0087 13.4986C20.993 12.4325 20.9831 12.331 20.8701 12.0814C20.7309 11.7738 20.3514 11.3801 20.0402 11.2203C19.9233 11.1604 19.7004 11.0871 19.5446 11.0576C19.1942 10.9911 7.79402 10.9943 7.45473 11.0609Z" fill="#2C2B46"/>
</svg>
