<svg width="21" height="21" viewBox="0 0 21 21" fill="none" xmlns="http://www.w3.org/2000/svg">
<path opacity="0.4" fill-rule="evenodd" clip-rule="evenodd" d="M18.3647 1.56641L16.7998 2.08584V5.42159V8.75738L18.3611 9.27637C19.6912 9.71851 19.9484 9.79249 20.0978 9.77564C20.3059 9.75217 20.4459 9.65694 20.5457 9.47097C20.6152 9.34133 20.6185 9.155 20.6185 5.41328V1.49153L20.5299 1.36138C20.4812 1.28981 20.3955 1.1973 20.3395 1.15584C20.1215 0.994432 20.0314 1.01317 18.3647 1.56641Z" fill="#2C2B46"/>
<path fill-rule="evenodd" clip-rule="evenodd" d="M4.63833 0.556184C4.22414 0.6287 3.58906 0.839438 3.21096 1.02986C2.29022 1.4935 1.41593 2.36515 0.963311 3.27066C0.0455588 5.1068 0.424755 7.38189 1.89414 8.8558C2.77366 9.73804 3.87499 10.2442 5.11576 10.3364C5.82336 10.3889 5.38235 10.4571 12.8625 9.1385C14.2807 8.88847 15.4809 8.6747 15.5297 8.6634L15.6183 8.64293V5.41548C15.6183 3.64037 15.6042 2.18804 15.587 2.18804C15.5699 2.18804 13.4484 1.81447 10.8727 1.35792C6.35373 0.556932 6.16818 0.527287 5.57935 0.513036C5.15748 0.5028 4.86702 0.516146 4.63833 0.556184ZM5.83784 3.60844C6.17928 3.67061 6.54879 3.86642 6.79953 4.1181C7.52934 4.85055 7.53084 5.99062 6.80292 6.71853C6.07087 7.45059 4.93037 7.45059 4.19831 6.71853C3.73129 6.25151 3.55799 5.63563 3.71098 4.98661C3.86916 4.31554 4.42457 3.77206 5.10694 3.62057C5.38574 3.55868 5.54963 3.55596 5.83784 3.60844ZM5.28819 4.78784C5.14059 4.83201 4.95422 5.00838 4.88557 5.16892C4.7064 5.58764 5.03462 6.08309 5.49235 6.08486C5.91843 6.08648 6.23236 5.7026 6.1526 5.2775C6.11752 5.0905 5.88623 4.83811 5.70345 4.78732C5.53578 4.74075 5.44515 4.74087 5.28819 4.78784ZM7.35093 11.2993L5.28409 11.6626L5.29669 11.7578C5.36295 12.259 5.99481 15.7585 6.04689 15.9129C6.15094 16.2211 6.36231 16.5432 6.61411 16.7772C6.86335 17.0088 7.31163 17.2463 7.58068 17.2893C7.77197 17.3199 7.76689 17.3117 7.90011 17.7975C8.19045 18.8561 9.03254 19.8004 10.0585 20.2177C10.5845 20.4317 10.822 20.4732 11.5043 20.4708C12.0711 20.4687 12.1688 20.4579 12.4799 20.3631C13.8034 19.9596 14.744 18.9856 15.1129 17.6364C15.1904 17.3531 15.2001 17.196 15.2212 15.8882C15.244 14.4687 15.2454 14.4494 15.3366 14.3028C15.4589 14.1061 15.6373 13.9748 15.865 13.9139C16.2 13.8243 16.5671 13.9827 16.766 14.3028L16.8584 14.4512L16.878 17.2889L16.8977 20.1265L17.0056 20.2678C17.1324 20.4342 17.3338 20.5121 17.5583 20.482C17.7525 20.456 17.8896 20.3588 17.9862 20.1787C18.0551 20.0501 18.0591 19.8936 18.0591 17.2785C18.0591 15.4125 18.045 14.4464 18.0156 14.3055C17.9378 13.9328 17.755 13.6084 17.4525 13.3064C16.9426 12.7975 16.2908 12.6023 15.6252 12.7592C14.9396 12.9208 14.3982 13.4 14.1515 14.0635C14.0712 14.2795 14.0645 14.3841 14.0422 15.7504C14.0199 17.1223 14.0133 17.223 13.9291 17.4826C13.6645 18.2982 13.0624 18.9116 12.2434 19.2C11.8859 19.3259 11.3068 19.3435 10.9011 19.2409C9.97446 19.0066 9.29466 18.3621 9.02849 17.4656C8.94093 17.1706 8.94353 17.1605 9.13234 17.0644C9.22438 17.0175 9.42532 16.8533 9.57885 16.6994C9.91427 16.3634 10.0888 16.027 10.1704 15.5599C10.2383 15.1709 10.247 15.2406 9.83045 12.8276C9.65759 11.8263 9.51618 10.9893 9.51618 10.9674C9.51618 10.915 9.68763 10.8887 7.35093 11.2993Z" fill="#2C2B46"/>
</svg>
